<svg xmlns="http://www.w3.org/2000/svg" viewBox="0 0 512 512" role="img" aria-labelledby="title description">
  <title id="title">WissenPur App-Icon</title>
  <desc id="description">Ein stilisiertes weißes Gehirn mit einem Stern auf blau-violettem Hintergrund.</desc>
  <defs>
    <linearGradient id="background" x1="48" y1="32" x2="464" y2="480" gradientUnits="userSpaceOnUse">
      <stop stop-color="#2563eb"/>
      <stop offset="1" stop-color="#7c3aed"/>
    </linearGradient>
  </defs>
  <rect width="512" height="512" rx="112" fill="url(#background)"/>
  <path d="M236 130c-48-36-116-1-116 58 0 12 3 24 9 34-24 13-39 38-39 66 0 39 29 72 67 76 9 38 44 66 85 66 24 0 47-10 64-27 17 17 40 27 64 27 48 0 87-39 87-87 0-10-2-20-5-29 18-14 30-36 30-61 0-34-22-63-52-73-4-55-70-82-113-48-18-23-56-24-81-2Z" fill="#fff" opacity=".96"/>
  <path d="M256 151v246M181 201c34 8 58 35 58 68M173 303c32-14 64-8 83 18M331 190c-33 13-54 43-54 76M344 302c-30-12-62-4-82 20" fill="none" stroke="#4f46e5" stroke-width="18" stroke-linecap="round"/>
  <path d="m391 96 12 27 29 3-22 20 6 29-25-15-25 15 6-29-22-20 29-3 12-27Z" fill="#fbbf24"/>
</svg>
