<svg xmlns="http://www.w3.org/2000/svg" viewBox="0 0 256 256" role="img" aria-labelledby="title"><title id="title">WissenPur Avatar Jude</title><defs><linearGradient id="bg" x1="0" y1="0" x2="1" y2="1"><stop stop-color="#0f766e"/><stop offset="1" stop-color="#22c55e"/></linearGradient></defs><rect width="256" height="256" rx="64" fill="url(#bg)"/><circle cx="128" cy="105" r="51" fill="#f5cfa0"/><path d="M76 93c6-39 28-61 56-61 31 0 51 21 55 58-18-10-38-15-59-15-19 0-37 6-52 18Z" fill="#3f3f46"/><circle cx="108" cy="106" r="6" fill="#111827"/><circle cx="149" cy="106" r="6" fill="#111827"/><path d="M111 132c10 8 24 8 34 0" fill="none" stroke="#92400e" stroke-width="7" stroke-linecap="round"/><path d="M49 236c8-54 38-81 79-81 42 0 72 27 79 81" fill="#ecfeff"/><circle cx="204" cy="50" r="20" fill="#fbbf24"/><path d="m204 38 4 8 9 1-7 6 2 9-8-5-8 5 2-9-7-6 9-1 4-8Z" fill="#fff"/></svg>
